<svg width="73" height="32" viewBox="0 0 73 32" fill="none" xmlns="http://www.w3.org/2000/svg">
<path d="M47.988 23H45.468L39.762 14.378V23H37.242V10.418H39.762L45.468 19.058V10.418H47.988V23ZM58.2363 10.436V12.47H52.9983V15.692H57.0123V17.69H52.9983V23H50.4783V10.436H58.2363ZM59.4113 16.7C59.4113 15.464 59.6873 14.36 60.2393 13.388C60.8033 12.404 61.5653 11.642 62.5253 11.102C63.4973 10.55 64.5833 10.274 65.7833 10.274C67.1873 10.274 68.4173 10.634 69.4733 11.354C70.5293 12.074 71.2673 13.07 71.6873 14.342H68.7893C68.5013 13.742 68.0933 13.292 67.5653 12.992C67.0493 12.692 66.4493 12.542 65.7653 12.542C65.0333 12.542 64.3793 12.716 63.8033 13.064C63.2393 13.4 62.7953 13.88 62.4713 14.504C62.1593 15.128 62.0033 15.86 62.0033 16.7C62.0033 17.528 62.1593 18.26 62.4713 18.896C62.7953 19.52 63.2393 20.006 63.8033 20.354C64.3793 20.69 65.0333 20.858 65.7653 20.858C66.4493 20.858 67.0493 20.708 67.5653 20.408C68.0933 20.096 68.5013 19.64 68.7893 19.04H71.6873C71.2673 20.324 70.5293 21.326 69.4733 22.046C68.4293 22.754 67.1993 23.108 65.7833 23.108C64.5833 23.108 63.4973 22.838 62.5253 22.298C61.5653 21.746 60.8033 20.984 60.2393 20.012C59.6873 19.04 59.4113 17.936 59.4113 16.7Z" fill="#1E1E1E"/>
<path d="M16 0C12.8355 -3.77363e-08 9.74206 0.938383 7.11088 2.69649C4.47969 4.45459 2.42893 6.95345 1.21793 9.87706C0.00692588 12.8007 -0.309928 16.0177 0.307435 19.1214C0.924798 22.2251 2.44865 25.0761 4.68629 27.3137C6.92393 29.5513 9.77485 31.0752 12.8786 31.6926C15.9822 32.3099 19.1993 31.9931 22.1229 30.7821C25.0465 29.5711 27.5454 27.5203 29.3035 24.8891C31.0616 22.2579 32 19.1645 32 16L24 16C24 17.5823 23.5308 19.129 22.6518 20.4446C21.7727 21.7602 20.5233 22.7855 19.0615 23.391C17.5997 23.9965 15.9911 24.155 14.4393 23.8463C12.8874 23.5376 11.462 22.7757 10.3431 21.6569C9.22432 20.538 8.4624 19.1126 8.15372 17.5607C7.84504 16.0089 8.00346 14.4003 8.60896 12.9385C9.21447 11.4767 10.2398 10.2273 11.5554 9.34824C12.871 8.46919 14.4177 8 16 8L16 0Z" fill="#1E1E1E"/>
<path d="M16 0C13.8989 -2.5056e-08 11.8183 0.413852 9.87706 1.21793C7.93586 2.022 6.17203 3.20055 4.68629 4.68629C3.20055 6.17203 2.022 7.93586 1.21793 9.87707C0.413852 11.8183 -3.17265e-07 13.8989 0 16L8 16C8 14.9494 8.20693 13.9091 8.60896 12.9385C9.011 11.9679 9.60028 11.086 10.3431 10.3431C11.086 9.60028 11.9679 9.011 12.9385 8.60896C13.9091 8.20693 14.9494 8 16 8L16 0Z" fill="#2E7029"/>
<circle cx="16" cy="16" r="5" fill="#2E7029"/>
<path d="M21 16C21 15.3434 20.8707 14.6932 20.6194 14.0866C20.3681 13.48 19.9998 12.9288 19.5355 12.4645C19.0712 12.0002 18.52 11.6319 17.9134 11.3806C17.3068 11.1293 16.6566 11 16 11C15.3434 11 14.6932 11.1293 14.0866 11.3806C13.48 11.6319 12.9288 12.0002 12.4645 12.4645C12.0002 12.9288 11.6319 13.48 11.3806 14.0866C11.1293 14.6932 11 15.3434 11 16L16 16H21Z" fill="#1E1E1E"/>
</svg>
