<svg width="266" height="73" viewBox="0 0 266 73" fill="none" xmlns="http://www.w3.org/2000/svg">
<path d="M108.176 57.9067H102.496L89.633 38.4707V57.9067H83.9523V29.5439H89.633L102.496 49.0205V29.5439H108.176V57.9067ZM131.278 29.5845V34.1696H119.471V41.4328H128.519V45.9367H119.471V57.9067H113.79V29.5845H131.278ZM133.927 43.705C133.927 40.9188 134.549 38.4301 135.794 36.239C137.065 34.0208 138.783 32.3031 140.947 31.0858C143.138 29.8415 145.586 29.2193 148.291 29.2193C151.456 29.2193 154.229 30.0308 156.609 31.6539C158.99 33.2769 160.653 35.5222 161.6 38.3896H155.067C154.418 37.037 153.498 36.0226 152.308 35.3463C151.145 34.6701 149.792 34.3319 148.25 34.3319C146.6 34.3319 145.126 34.7242 143.828 35.5086C142.556 36.2661 141.555 37.3481 140.825 38.7547C140.122 40.1614 139.77 41.8115 139.77 43.705C139.77 45.5716 140.122 47.2217 140.825 48.6553C141.555 50.062 142.556 51.1576 143.828 51.942C145.126 52.6995 146.6 53.0782 148.25 53.0782C149.792 53.0782 151.145 52.74 152.308 52.0638C153.498 51.3604 154.418 50.3325 155.067 48.98H161.6C160.653 51.8744 158.99 54.1331 156.609 55.7562C154.256 57.3522 151.483 58.1502 148.291 58.1502C145.586 58.1502 143.138 57.5416 140.947 56.3243C138.783 55.0799 137.065 53.3622 135.794 51.1711C134.549 48.98 133.927 46.4913 133.927 43.705Z" fill="#EEEEEE"/>
<path d="M36.0678 0C28.9343 -8.50666e-08 21.9609 2.11534 16.0296 6.07852C10.0983 10.0417 5.47539 15.6747 2.7455 22.2652C0.0156126 28.8558 -0.698651 36.1078 0.693031 43.1043C2.08471 50.1007 5.51984 56.5274 10.564 61.5716C15.6082 66.6157 22.0348 70.0509 29.0313 71.4426C36.0278 72.8342 43.2798 72.12 49.8703 69.3901C56.4609 66.6602 62.0939 62.0373 66.0571 56.106C70.0202 50.1747 72.1356 43.2013 72.1356 36.0678L54.1017 36.0678C54.1017 39.6346 53.044 43.1212 51.0624 46.0869C49.0808 49.0526 46.2643 51.364 42.9691 52.7289C39.6738 54.0939 36.0478 54.451 32.5496 53.7552C29.0513 53.0593 25.838 51.3418 23.3159 48.8197C20.7938 46.2976 19.0763 43.0843 18.3804 39.586C17.6846 36.0878 18.0417 32.4618 19.4066 29.1665C20.7716 25.8713 23.083 23.0547 26.0487 21.0732C29.0144 19.0916 32.501 18.0339 36.0678 18.0339L36.0678 0Z" fill="#EEEEEE"/>
<path d="M36.0678 0C31.3313 -5.64821e-08 26.6412 0.932921 22.2652 2.7455C17.8893 4.55807 13.9132 7.21481 10.564 10.564C7.21481 13.9132 4.55807 17.8893 2.7455 22.2653C0.93292 26.6412 -7.1519e-07 31.3313 0 36.0678L18.0339 36.0678C18.0339 33.6996 18.5004 31.3545 19.4066 29.1665C20.3129 26.9785 21.6413 24.9905 23.3159 23.3159C24.9905 21.6413 26.9785 20.3129 29.1665 19.4066C31.3545 18.5004 33.6995 18.0339 36.0678 18.0339L36.0678 0Z" fill="#2E7029"/>
<circle cx="36.0678" cy="36.0678" r="11.2712" fill="#2E7029"/>
<path d="M47.339 36.0678C47.339 34.5877 47.0475 33.122 46.481 31.7545C45.9146 30.387 45.0844 29.1445 44.0378 28.0979C42.9911 27.0513 41.7486 26.221 40.3811 25.6546C39.0136 25.0882 37.548 24.7966 36.0678 24.7966C34.5877 24.7966 33.122 25.0882 31.7545 25.6546C30.387 26.221 29.1445 27.0513 28.0979 28.0979C27.0513 29.1445 26.221 30.387 25.6546 31.7545C25.0882 33.122 24.7966 34.5877 24.7966 36.0678L36.0678 36.0678H47.339Z" fill="#EEEEEE"/>
</svg>
